<?xml version="1.0" standalone="no"?>
<!DOCTYPE svg PUBLIC "-//W3C//DTD SVG 20010904//EN"
 "http://www.w3.org/TR/2001/REC-SVG-20010904/DTD/svg10.dtd">
<svg version="1.0" xmlns="http://www.w3.org/2000/svg"
 width="100pt" height="100pt" viewBox="0 0 200 200"
 preserveAspectRatio="xMidYMid meet">

<g transform="translate(-170.000000, 350.000000) scale(0.100000,-0.100000)"
fill="#473BF0" stroke="none">
<path d="M2273 3241 l-393 -226 0 -456 0 -457 386 -222 c213 -123 392 -223
399 -223 14 0 355 195 355 203 0 3 -48 31 -106 64 -116 65 -103 64 -199 8
l-50 -30 -282 162 -282 161 2 333 2 334 275 159 c151 87 280 159 285 159 6 0
134 -72 285 -159 l275 -159 3 -224 3 -223 62 -36 c34 -20 83 -48 110 -63 l47
-28 0 349 0 348 -108 61 c-59 34 -235 136 -392 226 l-285 164 -392 -225z"/>
<path d="M2453 2922 l-202 -117 -1 -245 0 -246 109 -62 c60 -34 111 -62 115
-62 3 0 6 107 6 239 l0 239 90 51 c49 28 92 51 94 51 10 0 176 -102 176 -108
0 -4 -38 -29 -85 -55 l-86 -49 3 -130 3 -130 275 -159 c151 -87 280 -158 285
-157 17 5 205 113 205 118 0 3 -124 77 -275 164 -151 88 -275 162 -275 165 0
3 43 30 96 59 l95 53 -3 131 -3 130 -205 119 c-113 65 -207 118 -210 118 -3 0
-96 -53 -207 -117z"/>
</g>
</svg>
